<svg xmlns="http://www.w3.org/2000/svg" width="350" height="350" viewBox="0 0 350 350"><defs><style>.a{fill:#fff;}</style></defs><path class="a" d="M360,404.911V95.089A20.089,20.089,0,0,1,380.089,75h24.822A20.089,20.089,0,0,1,425,95.089V404.911A20.089,20.089,0,0,1,404.911,425H380.089A20.089,20.089,0,0,1,360,404.911Z" transform="translate(-75 -75)"/><path class="a" d="M119.911,75H94.868A19.868,19.868,0,0,0,75,94.868V404.911A20.089,20.089,0,0,0,95.089,425h24.822A20.089,20.089,0,0,0,140,404.911V95.089A20.089,20.089,0,0,0,119.911,75Z" transform="translate(-75 -75)"/><path class="a" d="M239.614,275.806,302.925,208.9c12.119-12.807,3.04-33.9-14.592-33.9H263.639a20.087,20.087,0,0,0-14.581,6.27L161.6,273.547a20.091,20.091,0,0,0-1.55,25.793L247.3,416.884A20.088,20.088,0,0,0,263.432,425h29.78a20.089,20.089,0,0,0,15.838-32.448l-70.682-90.579A20.089,20.089,0,0,1,239.614,275.806Z" transform="translate(-75 -75)"/></svg>