<svg width="848" height="663" viewBox="0 0 848 663" fill="none" xmlns="http://www.w3.org/2000/svg">
<g clip-path="url(#clip0_1056_2469)">
<line x1="1.74846e-07" y1="308" x2="105" y2="308" stroke="#8A46AC" stroke-width="4"/>
<line x1="105" y1="309" x2="186" y2="309" stroke="#F0CF65" stroke-width="2" stroke-dasharray="6 6"/>
<line x1="186" y1="308" x2="533" y2="308" stroke="#8A46AC" stroke-width="4"/>
<line x1="664" y1="308" x2="1011" y2="308" stroke="#8A46AC" stroke-width="4"/>
<line x1="533" y1="309" x2="666" y2="309" stroke="#F0CF65" stroke-width="2" stroke-dasharray="6 6"/>
<path d="M192.132 340.478L192.216 337.65H192.09L190.2 342.676L188.31 337.65H188.184L188.268 340.478V345H186.672V335.228H188.856L190.214 338.826H190.312L191.684 335.228H193.728V345H192.132V340.478ZM198.595 345.168C197.96 345.168 197.409 345.056 196.943 344.832C196.476 344.599 196.089 344.267 195.781 343.838C195.482 343.409 195.258 342.881 195.109 342.256C194.969 341.631 194.899 340.917 194.899 340.114C194.899 339.321 194.969 338.611 195.109 337.986C195.258 337.351 195.482 336.819 195.781 336.39C196.089 335.961 196.476 335.634 196.943 335.41C197.409 335.177 197.96 335.06 198.595 335.06C199.864 335.06 200.797 335.503 201.395 336.39C201.992 337.277 202.291 338.518 202.291 340.114C202.291 341.71 201.992 342.951 201.395 343.838C200.797 344.725 199.864 345.168 198.595 345.168ZM198.595 343.67C198.921 343.67 199.197 343.609 199.421 343.488C199.645 343.357 199.822 343.175 199.953 342.942C200.093 342.709 200.191 342.424 200.247 342.088C200.312 341.743 200.345 341.36 200.345 340.94V339.274C200.345 338.434 200.214 337.771 199.953 337.286C199.701 336.801 199.248 336.558 198.595 336.558C197.941 336.558 197.484 336.801 197.223 337.286C196.971 337.771 196.845 338.434 196.845 339.274V340.954C196.845 341.794 196.971 342.457 197.223 342.942C197.484 343.427 197.941 343.67 198.595 343.67ZM206.989 345.168C206.354 345.168 205.804 345.056 205.337 344.832C204.87 344.599 204.483 344.267 204.175 343.838C203.876 343.409 203.652 342.881 203.503 342.256C203.363 341.631 203.293 340.917 203.293 340.114C203.293 339.321 203.363 338.611 203.503 337.986C203.652 337.351 203.876 336.819 204.175 336.39C204.483 335.961 204.87 335.634 205.337 335.41C205.804 335.177 206.354 335.06 206.989 335.06C208.258 335.06 209.192 335.503 209.789 336.39C210.386 337.277 210.685 338.518 210.685 340.114C210.685 341.71 210.386 342.951 209.789 343.838C209.192 344.725 208.258 345.168 206.989 345.168ZM206.989 343.67C207.316 343.67 207.591 343.609 207.815 343.488C208.039 343.357 208.216 343.175 208.347 342.942C208.487 342.709 208.585 342.424 208.641 342.088C208.706 341.743 208.739 341.36 208.739 340.94V339.274C208.739 338.434 208.608 337.771 208.347 337.286C208.095 336.801 207.642 336.558 206.989 336.558C206.336 336.558 205.878 336.801 205.617 337.286C205.365 337.771 205.239 338.434 205.239 339.274V340.954C205.239 341.794 205.365 342.457 205.617 342.942C205.878 343.427 206.336 343.67 206.989 343.67ZM213.83 337.986H213.69V345H212.122V335.228H214.376L216.938 342.242H217.078V335.228H218.646V345H216.392L213.83 337.986ZM192.286 366L191.6 363.522H188.702L188.03 366H186.182L188.926 356.228H191.474L194.232 366H192.286ZM190.214 358.034H190.102L189.024 362.024H191.292L190.214 358.034ZM195.795 366V356.228H197.629V364.488H201.955V366H195.795ZM203.909 366V356.228H207.619C208.571 356.228 209.299 356.499 209.803 357.04C210.307 357.581 210.559 358.319 210.559 359.252C210.559 360.185 210.307 360.923 209.803 361.464C209.299 362.005 208.571 362.276 207.619 362.276H205.743V366H203.909ZM205.743 360.778H207.241C207.736 360.778 208.09 360.68 208.305 360.484C208.52 360.279 208.627 359.957 208.627 359.518V358.986C208.627 358.547 208.52 358.23 208.305 358.034C208.09 357.829 207.736 357.726 207.241 357.726H205.743V360.778ZM216.812 361.8H213.956V366H212.122V356.228H213.956V360.288H216.812V356.228H218.646V366H216.812V361.8ZM225.864 366L225.178 363.522H222.28L221.608 366H219.76L222.504 356.228H225.052L227.81 366H225.864ZM223.792 358.034H223.68L222.602 362.024H224.87L223.792 358.034Z" fill="white"/>
<path d="M106.162 345V335.228H112.336V336.74H107.996V339.288H112.182V340.8H107.996V343.488H112.336V345H106.162ZM119.681 345L118.995 342.522H116.097L115.425 345H113.577L116.321 335.228H118.869L121.627 345H119.681ZM117.609 337.034H117.497L116.419 341.024H118.687L117.609 337.034ZM124.743 345H122.909V335.228H126.619C127.571 335.228 128.299 335.499 128.803 336.04C129.307 336.581 129.559 337.319 129.559 338.252C129.559 338.971 129.391 339.577 129.055 340.072C128.728 340.557 128.257 340.865 127.641 340.996L129.727 345H127.711L125.849 341.206H124.743V345ZM126.241 339.778C126.736 339.778 127.09 339.68 127.305 339.484C127.52 339.279 127.627 338.957 127.627 338.518V337.986C127.627 337.547 127.52 337.23 127.305 337.034C127.09 336.829 126.736 336.726 126.241 336.726H124.743V339.778H126.241ZM135.294 336.74V345H133.474V336.74H130.534V335.228H138.234V336.74H135.294ZM144.206 340.8H141.35V345H139.516V335.228H141.35V339.288H144.206V335.228H146.04V345H144.206V340.8Z" fill="white"/>
<circle cx="105" cy="309" r="12" fill="white"/>
<circle cx="186" cy="309" r="6" fill="white"/>
<circle cx="105" cy="309" r="80.75" stroke="#D8D8D8" stroke-width="0.5"/>
<circle cx="664" cy="309" r="62.75" stroke="#D8D8D8" stroke-width="0.5"/>
<circle cx="664" cy="309" r="130.75" stroke="#D8D8D8" stroke-width="0.5"/>
<path d="M534.022 335.228H537.06C538.329 335.228 539.272 335.648 539.888 336.488C540.513 337.328 540.826 338.537 540.826 340.114C540.826 341.701 540.513 342.914 539.888 343.754C539.272 344.585 538.329 345 537.06 345H534.022V335.228ZM536.934 343.53C537.606 343.53 538.101 343.311 538.418 342.872C538.745 342.433 538.908 341.794 538.908 340.954V339.26C538.908 338.429 538.745 337.795 538.418 337.356C538.101 336.917 537.606 336.698 536.934 336.698H535.828V343.53H536.934ZM542.557 345V335.228H548.731V336.74H544.391V339.288H548.577V340.8H544.391V343.488H548.731V345H542.557ZM550.881 345V343.628H553.079V336.6H550.881V335.228H557.097V336.6H554.899V343.628H557.097V345H550.881ZM564.316 340.478L564.4 337.65H564.274L562.384 342.676L560.494 337.65H560.368L560.452 340.478V345H558.856V335.228H561.04L562.398 338.826H562.496L563.868 335.228H565.912V345H564.316V340.478ZM570.778 345.168C570.143 345.168 569.593 345.056 569.126 344.832C568.659 344.599 568.272 344.267 567.964 343.838C567.665 343.409 567.441 342.881 567.292 342.256C567.152 341.631 567.082 340.917 567.082 340.114C567.082 339.321 567.152 338.611 567.292 337.986C567.441 337.351 567.665 336.819 567.964 336.39C568.272 335.961 568.659 335.634 569.126 335.41C569.593 335.177 570.143 335.06 570.778 335.06C572.047 335.06 572.981 335.503 573.578 336.39C574.175 337.277 574.474 338.518 574.474 340.114C574.474 341.71 574.175 342.951 573.578 343.838C572.981 344.725 572.047 345.168 570.778 345.168ZM570.778 343.67C571.105 343.67 571.38 343.609 571.604 343.488C571.828 343.357 572.005 343.175 572.136 342.942C572.276 342.709 572.374 342.424 572.43 342.088C572.495 341.743 572.528 341.36 572.528 340.94V339.274C572.528 338.434 572.397 337.771 572.136 337.286C571.884 336.801 571.431 336.558 570.778 336.558C570.125 336.558 569.667 336.801 569.406 337.286C569.154 337.771 569.028 338.434 569.028 339.274V340.954C569.028 341.794 569.154 342.457 569.406 342.942C569.667 343.427 570.125 343.67 570.778 343.67ZM579.061 345.168C578.221 345.168 577.502 345.023 576.905 344.734C576.317 344.445 575.836 344.062 575.463 343.586L576.569 342.438C576.933 342.858 577.325 343.171 577.745 343.376C578.174 343.572 578.631 343.67 579.117 343.67C579.677 343.67 580.106 343.544 580.405 343.292C580.703 343.04 580.853 342.676 580.853 342.2C580.853 341.808 580.741 341.514 580.517 341.318C580.293 341.113 579.915 340.968 579.383 340.884L578.347 340.716C577.441 340.557 576.797 340.231 576.415 339.736C576.032 339.232 575.841 338.639 575.841 337.958C575.841 337.025 576.144 336.311 576.751 335.816C577.357 335.312 578.197 335.06 579.271 335.06C580.036 335.06 580.694 335.181 581.245 335.424C581.805 335.667 582.253 335.998 582.589 336.418L581.511 337.566C581.249 337.258 580.937 337.015 580.573 336.838C580.209 336.651 579.779 336.558 579.285 336.558C578.221 336.558 577.689 336.997 577.689 337.874C577.689 338.247 577.801 338.532 578.025 338.728C578.249 338.924 578.631 339.069 579.173 339.162L580.195 339.344C581.044 339.503 581.674 339.815 582.085 340.282C582.495 340.749 582.701 341.346 582.701 342.074C582.701 342.531 582.621 342.951 582.463 343.334C582.304 343.707 582.071 344.034 581.763 344.314C581.455 344.585 581.072 344.795 580.615 344.944C580.167 345.093 579.649 345.168 579.061 345.168ZM539.286 366L538.6 363.522H535.702L535.03 366H533.182L535.926 356.228H538.474L541.232 366H539.286ZM537.214 358.034H537.102L536.024 362.024H538.292L537.214 358.034ZM542.795 366V356.228H544.629V364.488H548.955V366H542.795ZM550.909 366V356.228H554.619C555.571 356.228 556.299 356.499 556.803 357.04C557.307 357.581 557.559 358.319 557.559 359.252C557.559 360.185 557.307 360.923 556.803 361.464C556.299 362.005 555.571 362.276 554.619 362.276H552.743V366H550.909ZM552.743 360.778H554.241C554.736 360.778 555.09 360.68 555.305 360.484C555.52 360.279 555.627 359.957 555.627 359.518V358.986C555.627 358.547 555.52 358.23 555.305 358.034C555.09 357.829 554.736 357.726 554.241 357.726H552.743V360.778ZM563.812 361.8H560.956V366H559.122V356.228H560.956V360.288H563.812V356.228H565.646V366H563.812V361.8ZM572.864 366L572.178 363.522H569.28L568.608 366H566.76L569.504 356.228H572.052L574.81 366H572.864ZM570.792 358.034H570.68L569.602 362.024H571.87L570.792 358.034Z" fill="white"/>
<path d="M602.12 345V335.228H605.83C606.782 335.228 607.51 335.499 608.014 336.04C608.518 336.581 608.77 337.319 608.77 338.252C608.77 339.185 608.518 339.923 608.014 340.464C607.51 341.005 606.782 341.276 605.83 341.276H603.954V345H602.12ZM603.954 339.778H605.452C605.947 339.778 606.301 339.68 606.516 339.484C606.731 339.279 606.838 338.957 606.838 338.518V337.986C606.838 337.547 606.731 337.23 606.516 337.034C606.301 336.829 605.947 336.726 605.452 336.726H603.954V339.778ZM615.023 340.8H612.167V345H610.333V335.228H612.167V339.288H615.023V335.228H616.857V345H615.023V340.8ZM621.989 345.168C621.354 345.168 620.804 345.056 620.337 344.832C619.87 344.599 619.483 344.267 619.175 343.838C618.876 343.409 618.652 342.881 618.503 342.256C618.363 341.631 618.293 340.917 618.293 340.114C618.293 339.321 618.363 338.611 618.503 337.986C618.652 337.351 618.876 336.819 619.175 336.39C619.483 335.961 619.87 335.634 620.337 335.41C620.804 335.177 621.354 335.06 621.989 335.06C623.258 335.06 624.192 335.503 624.789 336.39C625.386 337.277 625.685 338.518 625.685 340.114C625.685 341.71 625.386 342.951 624.789 343.838C624.192 344.725 623.258 345.168 621.989 345.168ZM621.989 343.67C622.316 343.67 622.591 343.609 622.815 343.488C623.039 343.357 623.216 343.175 623.347 342.942C623.487 342.709 623.585 342.424 623.641 342.088C623.706 341.743 623.739 341.36 623.739 340.94V339.274C623.739 338.434 623.608 337.771 623.347 337.286C623.095 336.801 622.642 336.558 621.989 336.558C621.336 336.558 620.878 336.801 620.617 337.286C620.365 337.771 620.239 338.434 620.239 339.274V340.954C620.239 341.794 620.365 342.457 620.617 342.942C620.878 343.427 621.336 343.67 621.989 343.67ZM627.304 335.228H630.706C631.63 335.228 632.339 335.461 632.834 335.928C633.338 336.385 633.59 337.011 633.59 337.804C633.59 338.364 633.45 338.812 633.17 339.148C632.899 339.484 632.512 339.727 632.008 339.876V339.946C632.596 340.086 633.058 340.343 633.394 340.716C633.739 341.08 633.912 341.598 633.912 342.27C633.912 342.681 633.842 343.054 633.702 343.39C633.571 343.717 633.38 344.001 633.128 344.244C632.885 344.487 632.586 344.673 632.232 344.804C631.886 344.935 631.494 345 631.056 345H627.304V335.228ZM630.496 343.67C631.009 343.67 631.392 343.577 631.644 343.39C631.905 343.194 632.036 342.863 632.036 342.396V341.934C632.036 341.477 631.905 341.155 631.644 340.968C631.392 340.772 631.009 340.674 630.496 340.674H629.096V343.67H630.496ZM630.258 339.4C630.752 339.4 631.116 339.311 631.35 339.134C631.592 338.957 631.714 338.649 631.714 338.21V337.748C631.714 337.309 631.592 337.001 631.35 336.824C631.116 336.647 630.752 336.558 630.258 336.558H629.096V339.4H630.258ZM638.778 345.168C638.143 345.168 637.593 345.056 637.126 344.832C636.659 344.599 636.272 344.267 635.964 343.838C635.665 343.409 635.441 342.881 635.292 342.256C635.152 341.631 635.082 340.917 635.082 340.114C635.082 339.321 635.152 338.611 635.292 337.986C635.441 337.351 635.665 336.819 635.964 336.39C636.272 335.961 636.659 335.634 637.126 335.41C637.593 335.177 638.143 335.06 638.778 335.06C640.047 335.06 640.981 335.503 641.578 336.39C642.175 337.277 642.474 338.518 642.474 340.114C642.474 341.71 642.175 342.951 641.578 343.838C640.981 344.725 640.047 345.168 638.778 345.168ZM638.778 343.67C639.105 343.67 639.38 343.609 639.604 343.488C639.828 343.357 640.005 343.175 640.136 342.942C640.276 342.709 640.374 342.424 640.43 342.088C640.495 341.743 640.528 341.36 640.528 340.94V339.274C640.528 338.434 640.397 337.771 640.136 337.286C639.884 336.801 639.431 336.558 638.778 336.558C638.125 336.558 637.667 336.801 637.406 337.286C637.154 337.771 637.028 338.434 637.028 339.274V340.954C637.028 341.794 637.154 342.457 637.406 342.942C637.667 343.427 638.125 343.67 638.778 343.67ZM647.061 345.168C646.221 345.168 645.502 345.023 644.905 344.734C644.317 344.445 643.836 344.062 643.463 343.586L644.569 342.438C644.933 342.858 645.325 343.171 645.745 343.376C646.174 343.572 646.631 343.67 647.117 343.67C647.677 343.67 648.106 343.544 648.405 343.292C648.703 343.04 648.853 342.676 648.853 342.2C648.853 341.808 648.741 341.514 648.517 341.318C648.293 341.113 647.915 340.968 647.383 340.884L646.347 340.716C645.441 340.557 644.797 340.231 644.415 339.736C644.032 339.232 643.841 338.639 643.841 337.958C643.841 337.025 644.144 336.311 644.751 335.816C645.357 335.312 646.197 335.06 647.271 335.06C648.036 335.06 648.694 335.181 649.245 335.424C649.805 335.667 650.253 335.998 650.589 336.418L649.511 337.566C649.249 337.258 648.937 337.015 648.573 336.838C648.209 336.651 647.779 336.558 647.285 336.558C646.221 336.558 645.689 336.997 645.689 337.874C645.689 338.247 645.801 338.532 646.025 338.728C646.249 338.924 646.631 339.069 647.173 339.162L648.195 339.344C649.044 339.503 649.674 339.815 650.085 340.282C650.495 340.749 650.701 341.346 650.701 342.074C650.701 342.531 650.621 342.951 650.463 343.334C650.304 343.707 650.071 344.034 649.763 344.314C649.455 344.585 649.072 344.795 648.615 344.944C648.167 345.093 647.649 345.168 647.061 345.168ZM607.286 366L606.6 363.522H603.702L603.03 366H601.182L603.926 356.228H606.474L609.232 366H607.286ZM605.214 358.034H605.102L604.024 362.024H606.292L605.214 358.034ZM610.795 366V356.228H612.629V364.488H616.955V366H610.795ZM618.909 366V356.228H622.619C623.571 356.228 624.299 356.499 624.803 357.04C625.307 357.581 625.559 358.319 625.559 359.252C625.559 360.185 625.307 360.923 624.803 361.464C624.299 362.005 623.571 362.276 622.619 362.276H620.743V366H618.909ZM620.743 360.778H622.241C622.736 360.778 623.09 360.68 623.305 360.484C623.52 360.279 623.627 359.957 623.627 359.518V358.986C623.627 358.547 623.52 358.23 623.305 358.034C623.09 357.829 622.736 357.726 622.241 357.726H620.743V360.778ZM631.812 361.8H628.956V366H627.122V356.228H628.956V360.288H631.812V356.228H633.646V366H631.812V361.8ZM640.864 366L640.178 363.522H637.28L636.608 366H634.76L637.504 356.228H640.052L642.81 366H640.864ZM638.792 358.034H638.68L637.602 362.024H639.87L638.792 358.034Z" fill="white"/>
<path d="M670.132 340.478L670.216 337.65H670.09L668.2 342.676L666.31 337.65H666.184L666.268 340.478V345H664.672V335.228H666.856L668.214 338.826H668.312L669.684 335.228H671.728V345H670.132V340.478ZM678.681 345L677.995 342.522H675.097L674.425 345H672.577L675.321 335.228H677.869L680.627 345H678.681ZM676.609 337.034H676.497L675.419 341.024H677.687L676.609 337.034ZM683.743 345H681.909V335.228H685.619C686.571 335.228 687.299 335.499 687.803 336.04C688.307 336.581 688.559 337.319 688.559 338.252C688.559 338.971 688.391 339.577 688.055 340.072C687.728 340.557 687.257 340.865 686.641 340.996L688.727 345H686.711L684.849 341.206H683.743V345ZM685.241 339.778C685.736 339.778 686.09 339.68 686.305 339.484C686.52 339.279 686.627 338.957 686.627 338.518V337.986C686.627 337.547 686.52 337.23 686.305 337.034C686.09 336.829 685.736 336.726 685.241 336.726H683.743V339.778H685.241ZM693.272 345.168C692.432 345.168 691.713 345.023 691.116 344.734C690.528 344.445 690.047 344.062 689.674 343.586L690.78 342.438C691.144 342.858 691.536 343.171 691.956 343.376C692.385 343.572 692.842 343.67 693.328 343.67C693.888 343.67 694.317 343.544 694.616 343.292C694.914 343.04 695.064 342.676 695.064 342.2C695.064 341.808 694.952 341.514 694.728 341.318C694.504 341.113 694.126 340.968 693.594 340.884L692.558 340.716C691.652 340.557 691.008 340.231 690.626 339.736C690.243 339.232 690.052 338.639 690.052 337.958C690.052 337.025 690.355 336.311 690.962 335.816C691.568 335.312 692.408 335.06 693.482 335.06C694.247 335.06 694.905 335.181 695.456 335.424C696.016 335.667 696.464 335.998 696.8 336.418L695.722 337.566C695.46 337.258 695.148 337.015 694.784 336.838C694.42 336.651 693.99 336.558 693.496 336.558C692.432 336.558 691.9 336.997 691.9 337.874C691.9 338.247 692.012 338.532 692.236 338.728C692.46 338.924 692.842 339.069 693.384 339.162L694.406 339.344C695.255 339.503 695.885 339.815 696.296 340.282C696.706 340.749 696.912 341.346 696.912 342.074C696.912 342.531 696.832 342.951 696.674 343.334C696.515 343.707 696.282 344.034 695.974 344.314C695.666 344.585 695.283 344.795 694.826 344.944C694.378 345.093 693.86 345.168 693.272 345.168ZM670.286 366L669.6 363.522H666.702L666.03 366H664.182L666.926 356.228H669.474L672.232 366H670.286ZM668.214 358.034H668.102L667.024 362.024H669.292L668.214 358.034ZM673.795 366V356.228H675.629V364.488H679.955V366H673.795ZM681.909 366V356.228H685.619C686.571 356.228 687.299 356.499 687.803 357.04C688.307 357.581 688.559 358.319 688.559 359.252C688.559 360.185 688.307 360.923 687.803 361.464C687.299 362.005 686.571 362.276 685.619 362.276H683.743V366H681.909ZM683.743 360.778H685.241C685.736 360.778 686.09 360.68 686.305 360.484C686.52 360.279 686.627 359.957 686.627 359.518V358.986C686.627 358.547 686.52 358.23 686.305 358.034C686.09 357.829 685.736 357.726 685.241 357.726H683.743V360.778ZM694.812 361.8H691.956V366H690.122V356.228H691.956V360.288H694.812V356.228H696.646V366H694.812V361.8ZM703.864 366L703.178 363.522H700.28L699.608 366H697.76L700.504 356.228H703.052L705.81 366H703.864ZM701.792 358.034H701.68L700.602 362.024H702.87L701.792 358.034Z" fill="white"/>
<circle cx="533" cy="309" r="6" fill="white"/>
<circle cx="601" cy="309" r="6" fill="white"/>
<circle cx="664" cy="309" r="12" fill="white"/>
</g>
<defs>
<clipPath id="clip0_1056_2469">
<rect width="848" height="663" fill="white"/>
</clipPath>
</defs>
</svg>
