<svg width="220" height="40" viewBox="0 0 220 40" fill="none" xmlns="http://www.w3.org/2000/svg">
<path fill-rule="evenodd" clip-rule="evenodd" d="M51.7461 20.9686C51.3559 29.1577 46.0056 36.5912 37.8622 39.1231C29.6808 41.6669 21.1239 38.5034 16.3201 31.8702C16.0131 31.9269 15.708 31.9821 15.4053 32.0357C12.0817 32.6235 8.93764 33.0308 6.50942 33.0675C5.31507 33.0856 4.13489 33.0184 3.14466 32.7631C2.33299 32.5538 0.687054 31.9687 0.155372 30.1956C-0.185493 29.0589 0.0879926 28.0213 0.460992 27.2768C0.822659 26.555 1.3514 25.9453 1.86297 25.4528C2.89155 24.4626 4.29833 23.5253 5.72806 22.6979C7.87303 21.4568 10.3752 20.2906 12.4957 19.3994C12.7407 11.0658 18.1285 3.44667 26.3938 0.876864C34.7747 -1.7289 43.5497 1.65425 48.2805 8.6213C50.6337 8.1611 53.8417 7.65361 56.6786 7.46894C58.2481 7.36677 59.8431 7.35303 61.1549 7.5531C61.8027 7.6519 62.5327 7.82396 63.1936 8.16077C63.8507 8.49567 64.7303 9.15107 65.0861 10.3377C65.3717 11.2901 65.1524 12.1436 64.8885 12.7159C64.632 13.2721 64.2645 13.7261 63.9355 14.0721C63.2743 14.7674 62.3707 15.435 61.4081 16.055C59.4487 17.317 56.7251 18.7083 53.7445 20.0735C53.0934 20.3717 52.4257 20.6706 51.7461 20.9686ZM47.1598 22.8954C46.1331 28.3965 42.2192 33.1471 36.5946 34.8959C30.9381 36.6546 25.0512 34.911 21.1826 30.8837C26.2509 29.7727 31.374 28.4115 35.1438 27.2394C38.5666 26.1752 42.8991 24.6139 47.1598 22.8954ZM47.2149 17.4274C42.497 19.395 37.4888 21.2288 33.6951 22.4083C29.5611 23.6937 23.6987 25.2253 18.1666 26.3651C17.9108 25.7814 17.6874 25.1753 17.4994 24.5483C15.0326 16.3215 19.5822 7.61602 27.6614 5.10408C35.7405 2.59215 44.2897 7.22496 46.7566 15.4517C46.9535 16.1084 47.1057 16.768 47.2149 17.4274ZM50.6356 13.319C52.6192 12.9712 54.9431 12.6435 56.9951 12.5099C57.2113 12.4959 57.4214 12.4842 57.6251 12.4749C56.0525 13.3871 54.0184 14.4093 51.7096 15.4667C51.5724 15.5296 51.4344 15.5925 51.2957 15.6554C51.1861 15.1565 51.057 14.6581 50.9079 14.161C50.8227 13.877 50.7319 13.5963 50.6356 13.319ZM13.0312 24.6557C11.4053 25.3794 9.67568 26.2236 8.17894 27.0897C7.62704 27.409 7.1306 27.7179 6.6963 28.0112C8.54668 27.9604 11.0075 27.6632 13.8044 27.1892C13.638 26.7481 13.4857 26.2979 13.3481 25.839C13.23 25.4453 13.1245 25.0507 13.0312 24.6557ZM4.17691 27.8046C4.17915 27.8037 4.20204 27.8114 4.23888 27.8305C4.19309 27.8151 4.17467 27.8056 4.17691 27.8046Z" fill="white"/>
<path fill-rule="evenodd" clip-rule="evenodd" d="M96.9406 4.35358C95.5241 4.78854 95.4434 5.42658 95.0913 18.97L94.8743 27.3171L94.0228 28.0573C93.1719 28.7969 90.373 30.4044 89.9359 30.4044C89.7982 30.4044 89.8457 30.041 90.0536 29.5056C90.7854 27.6206 90.0292 25.8366 86.7498 21.711C84.0491 18.3136 84.1879 18.6258 84.4478 16.5294C84.6964 14.5222 84.4894 13.0849 83.8873 12.6394C83.2864 12.1946 81.6529 12.0336 80.762 12.3311C79.4575 12.7668 79.0462 13.5029 79.0478 15.399C79.0485 16.2938 79.1549 17.4121 79.2844 17.8839C79.4982 18.6626 79.4368 18.9212 78.6209 20.6831C77.2238 23.6999 74.5225 27.7088 71.3836 31.4236C70.1365 32.8996 69.9289 33.7515 70.5854 34.6998C70.9971 35.2949 72.0521 35.8929 72.6901 35.8929C73.3511 35.8929 74.4101 34.8928 76.3232 32.4626C78.2638 29.9971 79.7287 27.8216 81.1638 25.2735L82.1521 23.519L83.2828 24.9607C85.1436 27.3331 85.8264 28.5648 85.8264 29.5495C85.8264 30.6964 85.5495 31.1901 84.7088 31.5426C83.7822 31.9309 82.664 31.6809 81.6382 30.8558C80.5498 29.9806 80.0799 29.9989 79.1369 30.9532C78.3273 31.7724 78.1888 32.4525 78.6589 33.3009C80.3419 36.3379 87.5846 36.2526 93.2277 33.129L94.8662 32.222V32.9213C94.8662 34.0051 95.4493 35.1817 96.113 35.4369C97.1149 35.8225 98.8234 35.7138 99.4176 35.2272C99.9507 34.7904 99.9514 34.7831 100.133 27.5131C100.335 19.4246 100.24 19.8689 101.985 18.8538C103.148 18.1773 104.526 17.9621 105.262 18.342C106.489 18.9743 106.617 19.6951 106.619 25.945C106.621 32.0374 106.744 32.9947 107.687 34.2591C108.462 35.2981 109.445 35.6642 111.461 35.6642C113.553 35.6642 114.963 35.1444 117.059 33.6012C118.375 32.6323 118.59 32.5406 118.702 32.8987C118.974 33.7668 120.479 34.9875 121.731 35.3557C124.004 36.0244 126.437 35.4092 128.317 33.6899C129.219 32.8651 129.299 32.8356 129.533 33.2374C129.985 34.016 130.841 34.9843 131.291 35.2281C132.061 35.645 133.915 35.8314 135.224 35.6237C136.782 35.3763 138.724 34.4057 140.059 33.2056L141.07 32.2975L142.03 33.378C143.337 34.8492 144.897 35.532 146.958 35.5352C148.941 35.5384 150.549 34.9948 151.825 33.8894C152.494 33.3096 152.831 33.1397 152.9 33.3476C153.092 33.9303 154.307 35.1529 154.971 35.4312C155.385 35.6047 156.356 35.6793 157.514 35.6262C159.735 35.5245 161.203 34.9242 163.145 33.3231L164.414 32.2778L165.23 33.2659C166.396 34.6776 168.186 35.5117 170.094 35.5332C172.257 35.5574 173.11 35.3097 174.731 34.1864L176.174 33.1871L176.708 34.0048C177.585 35.3488 178.488 35.6999 180.858 35.6192C182.587 35.5601 183.093 35.4469 184.238 34.8638C184.978 34.4865 186.141 33.6543 186.823 33.0144L188.062 31.8511L188.774 32.9C191.378 36.7372 197.25 36.7923 201.488 33.0194L202.681 31.9567L203.811 33.0261C205.254 34.3916 206.909 35.1535 209.018 35.4234C212.138 35.8225 215.228 35.103 217.602 33.4244C218.893 32.5122 219.321 31.7532 219.084 30.7973C218.89 30.0149 217.862 28.8036 217.392 28.8036C217.185 28.8036 216.521 29.1596 215.917 29.5946C214.454 30.6466 212.926 31.1311 211.08 31.1289C209.389 31.1268 208.464 30.8483 207.674 30.1032C206.537 29.0302 206.583 28.9161 208.591 27.8474C210.929 26.6031 213.18 24.426 214.087 22.5331C214.609 21.4419 214.753 20.7885 214.83 19.1621C214.917 17.3277 214.87 17.0305 214.316 15.8845C213.297 13.7765 211.147 12.8361 208.347 13.2738C206.523 13.5587 205.366 14.1584 204.03 15.5108C201.821 17.7451 200.746 21.1949 200.918 25.4876C201.018 27.9764 201.012 28.0121 200.373 28.8374C199.261 30.2733 197.676 31.1364 195.917 31.2638C193.871 31.412 193.102 31.0118 192.369 29.4176C192.069 28.7654 191.822 28.0427 191.821 27.8115C191.82 27.5803 192.486 26.5512 193.301 25.5246C195.064 23.3047 196.619 20.2357 197.26 17.7122C197.929 15.0733 198.105 10.2034 197.602 8.22161C197.109 6.27593 196.376 5.18966 195.152 4.59027C193.342 3.70342 191.222 4.05537 189.674 5.49999C187.796 7.25106 186.972 10.4687 186.633 17.3691C186.501 20.0782 186.494 22.945 186.616 24.673C186.842 27.8636 186.838 27.8739 185.114 29.5127C183.776 30.7849 183.208 31.0904 182.186 31.0904C181.329 31.0904 181.218 31.0232 180.993 30.3703C180.705 29.5331 180.684 20.0441 180.952 11.3089C181.049 8.16444 181.049 5.37284 180.953 5.10528C180.452 3.71577 176.553 3.86579 176.03 5.29486C175.924 5.58392 175.779 7.55453 175.707 9.67424C175.635 11.7937 175.533 13.572 175.479 13.626C175.426 13.6799 174.665 13.6113 173.787 13.4734C169.898 12.8628 166.066 14.8296 164.41 18.2869C163.425 20.3444 163.117 21.9841 163.117 25.1846V28.1015L162.383 28.9501C160.789 30.7918 158.269 31.7333 157.727 30.6902C157.261 29.7933 157.21 26.9256 157.478 16.604C157.633 10.648 157.694 5.51005 157.613 5.18646C157.312 3.97304 154.111 3.7336 153.024 4.8432C152.546 5.33053 152.505 5.62348 152.357 9.53657C152.271 11.8319 152.159 13.7101 152.109 13.7101C152.058 13.7101 151.329 13.6022 150.488 13.47C145.668 12.7133 141.599 15.5216 140.134 20.6154C139.91 21.3954 139.768 22.9551 139.736 24.9847L139.687 28.1408L138.577 29.2911C137.41 30.5 136.1 31.3191 135.334 31.3191C135.083 31.3191 134.707 31.055 134.498 30.7321C134.152 30.1981 134.135 29.5392 134.307 23.4712C134.586 13.6328 134.611 14.4234 133.995 13.9185C133.18 13.2505 130.806 13.3012 129.999 14.004C129.423 14.5048 129.39 14.6585 129.206 17.7202C129.1 19.4767 129.009 22.787 129.003 25.0764L128.992 29.239L127.924 29.9822C127.112 30.548 126.554 30.7479 125.592 30.8183C122.89 31.0159 122.547 29.8052 122.723 20.6851C122.784 17.5407 122.754 14.7525 122.655 14.489C122.392 13.7854 121.278 13.4083 119.824 13.5304C117.589 13.7179 117.655 13.4963 117.517 21.2713L117.399 27.9627L116.585 28.8781C115.276 30.3493 114.125 31.0904 113.146 31.0904C111.765 31.0904 111.723 30.878 111.788 24.2826C111.853 17.7629 111.682 16.6394 110.397 15.1596C108.309 12.7531 104.131 12.8329 101.317 15.3329L100.443 16.1093L100.602 10.8175L100.762 5.52583L100.243 4.92827C99.6445 4.2374 98.1599 3.97922 96.9406 4.35358ZM193.729 9.21869C194.034 10.7456 194.056 11.5385 193.853 13.7101C193.593 16.4848 193.029 18.658 192.053 20.6508L191.363 22.0573L191.474 17.0261C191.591 11.7125 191.924 9.27221 192.601 8.77138C193.105 8.39862 193.604 8.59643 193.729 9.21869ZM210.153 17.9765C210.609 18.5332 210.476 20.3931 209.892 21.6125C209.398 22.6461 207.836 24.1068 206.45 24.8319L205.789 25.1782L205.939 23.3889C206.159 20.7784 206.64 19.2487 207.521 18.3571C208.374 17.494 209.612 17.3152 210.153 17.9765ZM151.999 18.1931C152.085 18.3058 152.105 20.971 152.043 24.1154L151.93 29.8327L150.687 30.4782C148.572 31.5764 146.565 31.0705 145.649 29.2083C145.058 28.0047 144.75 25.7359 144.907 23.7331C145.143 20.7379 145.923 19.1483 147.578 18.2944C148.377 17.8821 148.821 17.8139 150.191 17.8928C151.099 17.9452 151.912 18.0804 151.999 18.1931ZM174.967 18.0495L175.547 18.2725L175.545 23.9382L175.544 29.604L174.811 30.0936C173.003 31.3011 170.909 31.3459 169.7 30.2024C168.639 29.2003 168.242 27.4353 168.36 24.2504C168.435 22.2224 168.568 21.352 168.926 20.5445C169.403 19.4655 170.621 18.2869 171.534 18.0209C172.335 17.7872 174.329 17.8039 174.967 18.0495Z" fill="white"/>
</svg>
