<svg width="150" height="40" viewBox="0 0 150 40" fill="none" xmlns="http://www.w3.org/2000/svg">
<path fill-rule="evenodd" clip-rule="evenodd" d="M26.9407 4.35358C25.5242 4.78854 25.4435 5.42658 25.0914 18.97L24.8744 27.3171L24.0229 28.0573C23.172 28.7969 20.373 30.4044 19.9359 30.4044C19.7983 30.4044 19.8458 30.041 20.0537 29.5056C20.7855 27.6206 20.0293 25.8366 16.7498 21.711C14.0492 18.3136 14.1879 18.6258 14.4478 16.5294C14.6964 14.5222 14.4894 13.0849 13.8874 12.6394C13.2864 12.1946 11.6529 12.0336 10.7621 12.3311C9.45761 12.7668 9.04629 13.5029 9.04787 15.399C9.04855 16.2938 9.155 17.4121 9.28449 17.8839C9.49828 18.6626 9.43681 18.9212 8.62097 20.6831C7.22385 23.6999 4.52252 27.7088 1.38365 31.4236C0.136603 32.8996 -0.0710875 33.7515 0.585432 34.6998C0.997198 35.2949 2.05215 35.8929 2.69014 35.8929C3.35118 35.8929 4.4102 34.8928 6.32326 32.4626C8.26389 29.9971 9.7288 27.8216 11.1639 25.2735L12.1522 23.519L13.2828 24.9607C15.1437 27.3331 15.8264 28.5648 15.8264 29.5495C15.8264 30.6964 15.5496 31.1901 14.7089 31.5426C13.7823 31.9309 12.664 31.6809 11.6382 30.8558C10.5498 29.9806 10.08 29.9989 9.13692 30.9532C8.3274 31.7724 8.18886 32.4525 8.65893 33.3009C10.3419 36.3379 17.5847 36.2526 23.2278 33.129L24.8663 32.222V32.9213C24.8663 34.0051 25.4493 35.1817 26.1131 35.4369C27.1149 35.8225 28.8235 35.7138 29.4176 35.2272C29.9507 34.7904 29.9514 34.7831 30.1329 27.5131C30.3349 19.4246 30.24 19.8689 31.9849 18.8538C33.1477 18.1773 34.5256 17.9621 35.2621 18.342C36.4886 18.9743 36.6172 19.6951 36.619 25.945C36.6208 32.0374 36.7438 32.9947 37.6871 34.2591C38.4622 35.2981 39.4455 35.6642 41.4614 35.6642C43.5526 35.6642 44.9628 35.1444 47.0589 33.6012C48.3751 32.6323 48.5898 32.5406 48.7024 32.8987C48.9745 33.7668 50.4791 34.9875 51.7307 35.3557C54.004 36.0244 56.4366 35.4092 58.3174 33.6899C59.2196 32.8651 59.2989 32.8356 59.5328 33.2374C59.9855 34.016 60.8409 34.9843 61.291 35.2281C62.0606 35.645 63.9149 35.8314 65.2236 35.6237C66.7825 35.3763 68.7236 34.4057 70.0593 33.2056L71.0699 32.2975L72.0302 33.378C73.3371 34.8492 74.8972 35.532 76.9585 35.5352C78.9414 35.5384 80.5487 34.9948 81.8251 33.8894C82.4943 33.3096 82.8315 33.1397 82.8999 33.3476C83.0918 33.9303 84.3072 35.1529 84.971 35.4312C85.3852 35.6047 86.3559 35.6793 87.5146 35.6262C89.7347 35.5245 91.2028 34.9242 93.1453 33.3231L94.4138 32.2778L95.2299 33.2659C96.396 34.6776 98.1857 35.5117 100.094 35.5332C102.257 35.5574 103.11 35.3097 104.731 34.1864L106.174 33.1871L106.708 34.0048C107.586 35.3488 108.488 35.6999 110.858 35.6192C112.587 35.5601 113.094 35.4469 114.238 34.8638C114.978 34.4865 116.142 33.6543 116.823 33.0144L118.062 31.8511L118.774 32.9C121.379 36.7372 127.25 36.7923 131.488 33.0194L132.682 31.9567L133.811 33.0261C135.254 34.3916 136.909 35.1535 139.018 35.4234C142.138 35.8225 145.228 35.103 147.603 33.4244C148.893 32.5122 149.321 31.7532 149.084 30.7973C148.89 30.0149 147.862 28.8036 147.392 28.8036C147.185 28.8036 146.521 29.1596 145.917 29.5946C144.454 30.6466 142.926 31.1311 141.08 31.1289C139.389 31.1268 138.464 30.8483 137.674 30.1032C136.537 29.0302 136.583 28.9161 138.591 27.8474C140.929 26.6031 143.18 24.426 144.087 22.5331C144.609 21.4419 144.753 20.7885 144.83 19.1621C144.917 17.3277 144.87 17.0305 144.316 15.8845C143.297 13.7765 141.147 12.8361 138.348 13.2738C136.523 13.5587 135.366 14.1584 134.03 15.5108C131.821 17.7451 130.746 21.1949 130.918 25.4876C131.018 27.9764 131.012 28.0121 130.373 28.8374C129.262 30.2733 127.676 31.1364 125.917 31.2638C123.871 31.412 123.102 31.0118 122.369 29.4176C122.069 28.7654 121.822 28.0427 121.821 27.8115C121.82 27.5803 122.486 26.5512 123.301 25.5246C125.064 23.3047 126.619 20.2357 127.26 17.7122C127.93 15.0733 128.105 10.2034 127.603 8.22161C127.109 6.27593 126.376 5.18966 125.152 4.59027C123.342 3.70342 121.222 4.05537 119.674 5.49999C117.796 7.25106 116.972 10.4687 116.634 17.3691C116.501 20.0782 116.494 22.945 116.616 24.673C116.842 27.8636 116.839 27.8739 115.114 29.5127C113.776 30.7849 113.209 31.0904 112.186 31.0904C111.329 31.0904 111.218 31.0232 110.993 30.3703C110.705 29.5331 110.684 20.0441 110.952 11.3089C111.049 8.16444 111.049 5.37284 110.953 5.10528C110.452 3.71577 106.553 3.86579 106.03 5.29486C105.924 5.58392 105.779 7.55453 105.707 9.67424C105.635 11.7937 105.533 13.572 105.479 13.626C105.426 13.6799 104.665 13.6113 103.787 13.4734C99.8976 12.8628 96.0656 14.8296 94.4099 18.2869C93.4246 20.3444 93.1172 21.9841 93.1172 25.1846V28.1015L92.3827 28.9501C90.7886 30.7918 88.2694 31.7333 87.7272 30.6902C87.261 29.7933 87.2104 26.9256 87.4782 16.604C87.633 10.648 87.6938 5.51005 87.6135 5.18646C87.3125 3.97304 84.1108 3.7336 83.0238 4.8432C82.5465 5.33053 82.5049 5.62348 82.3575 9.53657C82.2712 11.8319 82.1593 13.7101 82.1087 13.7101C82.0583 13.7101 81.3288 13.6022 80.4876 13.47C75.6683 12.7133 71.5994 15.5216 70.1343 20.6154C69.9099 21.3954 69.7677 22.9551 69.7361 24.9847L69.687 28.1408L68.5767 29.2911C67.4099 30.5 66.1003 31.3191 65.3339 31.3191C65.0833 31.3191 64.707 31.055 64.4979 30.7321C64.1522 30.1981 64.135 29.5392 64.307 23.4712C64.5856 13.6328 64.6114 14.4234 63.9951 13.9185C63.1797 13.2505 60.8061 13.3012 59.9986 14.004C59.4232 14.5048 59.3904 14.6585 59.2062 17.7202C59.1005 19.4767 59.0089 22.787 59.0028 25.0764L58.9918 29.239L57.9241 29.9822C57.1117 30.548 56.5539 30.7479 55.5919 30.8183C52.8896 31.0159 52.5468 29.8052 52.7235 20.6851C52.7845 17.5407 52.7536 14.7525 52.655 14.489C52.3918 13.7854 51.2783 13.4083 49.8244 13.5304C47.5891 13.7179 47.6551 13.4963 47.5172 21.2713L47.3988 27.9627L46.5848 28.8781C45.2765 30.3493 44.1246 31.0904 43.146 31.0904C41.7649 31.0904 41.7227 30.878 41.7882 24.2826C41.8529 17.7629 41.6818 16.6394 40.3974 15.1596C38.3095 12.7531 34.1308 12.8329 31.3169 15.3329L30.4432 16.1093L30.6025 10.8175L30.7619 5.52583L30.2434 4.92827C29.6445 4.2374 28.1599 3.97922 26.9407 4.35358ZM123.729 9.21869C124.034 10.7456 124.056 11.5385 123.853 13.7101C123.593 16.4848 123.029 18.658 122.053 20.6508L121.363 22.0573L121.474 17.0261C121.591 11.7125 121.924 9.27221 122.601 8.77138C123.105 8.39862 123.604 8.59643 123.729 9.21869ZM140.153 17.9765C140.609 18.5332 140.476 20.3931 139.892 21.6125C139.398 22.6461 137.836 24.1068 136.45 24.8319L135.789 25.1782L135.94 23.3889C136.159 20.7784 136.64 19.2487 137.521 18.3571C138.374 17.494 139.612 17.3152 140.153 17.9765ZM81.9989 18.1931C82.0854 18.3058 82.1056 20.971 82.0434 24.1154L81.9304 29.8327L80.6874 30.4782C78.5725 31.5764 76.5653 31.0705 75.6495 29.2083C75.0576 28.0047 74.75 25.7359 74.9073 23.7331C75.1426 20.7379 75.9232 19.1483 77.5777 18.2944C78.3768 17.8821 78.8212 17.8139 80.1909 17.8928C81.0987 17.9452 81.9123 18.0804 81.9989 18.1931ZM104.967 18.0495L105.547 18.2725L105.545 23.9382L105.544 29.604L104.811 30.0936C103.003 31.3011 100.909 31.3459 99.6996 30.2024C98.6395 29.2003 98.2422 27.4353 98.3604 24.2504C98.4354 22.2224 98.5683 21.352 98.9256 20.5445C99.4031 19.4655 100.621 18.2869 101.534 18.0209C102.335 17.7872 104.329 17.8039 104.967 18.0495Z" fill="white"/>
</svg>
