<svg width="118" height="48" viewBox="0 0 118 48" fill="none" xmlns="http://www.w3.org/2000/svg">
<path d="M14.2064 47.2431L0 3.21682H9.72351L16.29 24.3469L19.7627 38.1603H19.9521L23.2985 24.3469L29.8651 3.21682H39.2729L24.9402 47.2431H14.2064Z" fill="white"/>
<path d="M41.3812 14.1288H50.7258V47.2431H41.3812V14.1288Z" fill="white"/>
<path d="M67.5294 48C64.3303 48 61.6363 47.4954 59.4475 46.4862C57.2586 45.435 55.3013 43.9632 53.5755 42.071L59.0687 36.5204C60.2473 37.8239 61.5521 38.8541 62.9833 39.611C64.4145 40.3679 66.035 40.7464 67.8451 40.7464C69.6972 40.7464 70.981 40.4731 71.6966 39.9264C72.4122 39.3377 72.77 38.5598 72.77 37.5926C72.77 36.0368 71.6545 35.1117 69.4236 34.8173L65.8246 34.3758C58.3741 33.4507 54.6489 30.0447 54.6489 24.1577C54.6489 22.5598 54.9435 21.1091 55.5328 19.8055C56.1642 18.4599 57.0271 17.3246 58.1215 16.3995C59.2581 15.4323 60.605 14.6965 62.1625 14.1919C63.762 13.6452 65.551 13.3719 67.5294 13.3719C69.2552 13.3719 70.7705 13.498 72.0754 13.7503C73.4224 13.9606 74.601 14.297 75.6112 14.7595C76.6636 15.18 77.6107 15.7267 78.4525 16.3995C79.3365 17.0302 80.1994 17.7451 81.0413 18.544L75.6744 24.0315C74.6221 22.9803 73.4224 22.1603 72.0754 21.5716C70.7705 20.9409 69.4236 20.6255 68.0345 20.6255C66.4349 20.6255 65.2984 20.8778 64.6249 21.3824C63.9514 21.887 63.6147 22.5598 63.6147 23.4008C63.6147 24.2838 63.8462 24.9777 64.3092 25.4823C64.8144 25.9448 65.7404 26.2812 67.0874 26.4915L70.8126 26.9961C78.0947 27.9632 81.7358 31.2852 81.7358 36.9619C81.7358 38.5598 81.399 40.0315 80.7255 41.3771C80.0521 42.7227 79.0839 43.9001 77.8211 44.9093C76.6004 45.8765 75.1061 46.6334 73.3382 47.18C71.6124 47.7267 69.6761 48 67.5294 48Z" fill="white"/>
<path d="M84.95 14.1288H94.2947V47.2431H84.95V14.1288Z" fill="white"/>
<path d="M111.477 47.2431C108.236 47.2431 105.773 46.4231 104.09 44.7832C102.448 43.1432 101.627 40.7464 101.627 37.5926V21.3824H96.9549V14.1288H99.2911C100.554 14.1288 101.417 13.8344 101.88 13.2457C102.343 12.615 102.574 11.7319 102.574 10.5966V5.17214H110.972V14.1288H117.538V21.3824H110.972V39.9895H117.033V47.2431H111.477Z" fill="white"/>
<path d="M46.0513 10.6667C44.155 10.6667 42.7645 10.2434 41.8795 9.39682C41.0368 8.50794 40.6154 7.38624 40.6154 6.03174V4.63492C40.6154 3.28042 41.0368 2.17989 41.8795 1.33333C42.7645 0.444444 44.155 0 46.0513 0C47.9475 0 49.317 0.444444 50.1598 1.33333C51.0447 2.17989 51.4872 3.28042 51.4872 4.63492V6.03174C51.4872 7.38624 51.0447 8.50794 50.1598 9.39682C49.317 10.2434 47.9475 10.6667 46.0513 10.6667Z" fill="white"/>
<path d="M89.3333 10.6667C87.4371 10.6667 86.0465 10.2434 85.1616 9.39682C84.3188 8.50794 83.8974 7.38624 83.8974 6.03174V4.63492C83.8974 3.28042 84.3188 2.17989 85.1616 1.33333C86.0465 0.444444 87.4371 0 89.3333 0C91.2296 0 92.5991 0.444444 93.4418 1.33333C94.3268 2.17989 94.7692 3.28042 94.7692 4.63492V6.03174C94.7692 7.38624 94.3268 8.50794 93.4418 9.39682C92.5991 10.2434 91.2296 10.6667 89.3333 10.6667Z" fill="white"/>
</svg>
