<svg width="118" height="48" viewBox="0 0 118 48" fill="none" xmlns="http://www.w3.org/2000/svg">
<path d="M9.5766 47.2399H0V3.02626H20.8543C22.8704 3.02626 24.6976 3.36409 26.3357 4.03975C27.9738 4.71541 29.3599 5.68667 30.4939 6.95354C31.67 8.17817 32.5731 9.65619 33.2031 11.3876C33.8331 13.119 34.1482 15.0404 34.1482 17.1518C34.1482 20.1501 33.4761 22.7683 32.132 25.0064C30.8299 27.2445 28.8348 28.8703 26.1466 29.8838L34.7782 47.2399H24.1305L16.444 31.024H9.5766V47.2399ZM19.6572 22.9161C21.0853 22.9161 22.1984 22.5571 22.9965 21.8392C23.8365 21.0791 24.2565 19.9811 24.2565 18.5454V15.7583C24.2565 14.3225 23.8365 13.2456 22.9965 12.5278C22.1984 11.7676 21.0853 11.3876 19.6572 11.3876H9.5766V22.9161H19.6572Z" fill="white"/>
<path d="M38.7996 13.9846H48.1242V47.2399H38.7996V13.9846Z" fill="white"/>
<path d="M73.9642 41.6657H73.6492C73.3972 42.5525 72.9981 43.3971 72.4521 44.1994C71.9061 44.9595 71.234 45.6352 70.436 46.2264C69.6799 46.7754 68.7979 47.1977 67.7898 47.4933C66.8237 47.8311 65.8157 48 64.7656 48C60.5654 48 57.3942 46.522 55.252 43.566C53.1099 40.5677 52.0388 36.2393 52.0388 30.5806C52.0388 24.9219 53.1099 20.6146 55.252 17.6586C57.3942 14.7025 60.5654 13.2245 64.7656 13.2245C66.9078 13.2245 68.7979 13.8157 70.436 14.9981C72.1161 16.1805 73.1872 17.7008 73.6492 19.5589H73.9642V0.365837H83.2888V47.2399H73.9642V41.6657ZM67.8528 40.3988C69.6169 40.3988 71.066 39.9765 72.2001 39.1319C73.3762 38.2451 73.9642 37.0416 73.9642 35.5214V25.7032C73.9642 24.1829 73.3762 23.0005 72.2001 22.1559C71.066 21.2691 69.6169 20.8257 67.8528 20.8257C66.0887 20.8257 64.6186 21.4592 63.4425 22.726C62.3085 23.9507 61.7414 25.6187 61.7414 27.7301V33.4944C61.7414 35.6058 62.3085 37.295 63.4425 38.5618C64.6186 39.7865 66.0887 40.3988 67.8528 40.3988Z" fill="white"/>
<path d="M102.656 48C100.136 48 97.8888 47.5988 95.9147 46.7965C93.9406 45.9519 92.2605 44.7906 90.8744 43.3126C89.5303 41.7924 88.5012 39.9554 87.7872 37.8017C87.1151 35.6481 86.7791 33.241 86.7791 30.5806C86.7791 27.9624 87.1151 25.5976 87.7872 23.4861C88.4592 21.3325 89.4463 19.4955 90.7484 17.9753C92.0924 16.455 93.7306 15.2937 95.6627 14.4914C97.5948 13.6468 99.7999 13.2245 102.278 13.2245C105.008 13.2245 107.339 13.689 109.272 14.6181C111.246 15.5471 112.842 16.7929 114.06 18.3553C115.32 19.9178 116.223 21.7336 116.769 23.8029C117.357 25.8298 117.651 27.9624 117.651 30.2005V32.9876H96.4187V33.4944C96.4187 35.6903 97.0068 37.4428 98.1828 38.7519C99.3589 40.0187 101.207 40.6522 103.727 40.6522C105.659 40.6522 107.234 40.2721 108.452 39.512C109.671 38.7097 110.805 37.7595 111.855 36.6615L116.517 42.4891C115.047 44.2205 113.115 45.5718 110.721 46.5431C108.368 47.5144 105.68 48 102.656 48ZM102.467 20.1289C100.577 20.1289 99.0859 20.7624 97.9938 22.0292C96.9437 23.2539 96.4187 24.9008 96.4187 26.97V27.4768H108.011V26.9067C108.011 24.8797 107.549 23.2539 106.625 22.0292C105.743 20.7624 104.357 20.1289 102.467 20.1289Z" fill="white"/>
<path d="M43.4043 10.6213C41.5161 10.6213 40.1314 10.1998 39.2503 9.35684C38.4111 8.47173 37.9915 7.35481 37.9915 6.00608V4.61519C37.9915 3.26646 38.4111 2.17062 39.2503 1.32766C40.1314 0.442552 41.5161 0 43.4043 0C45.2924 0 46.6561 0.442552 47.4953 1.32766C48.3764 2.17062 48.817 3.26646 48.817 4.61519V6.00608C48.817 7.35481 48.3764 8.47173 47.4953 9.35684C46.6561 10.1998 45.2924 10.6213 43.4043 10.6213Z" fill="white"/>
</svg>
